<mxfile host="app.diagrams.net" agent="Mozilla/5.0 (Windows NT 10.0; Win64; x64) AppleWebKit/537.36 (KHTML, like Gecko) Chrome/138.0.0.0 Safari/537.36" version="28.0.4">
  <diagram name="페이지-1" id="tSGx1owoGtEoAsYIiLHp">
    <mxGraphModel dx="1188" dy="619" grid="1" gridSize="10" guides="1" tooltips="1" connect="1" arrows="1" fold="1" page="1" pageScale="1" pageWidth="827" pageHeight="1169" math="0" shadow="0">
      <root>
        <mxCell id="0" />
        <mxCell id="1" parent="0" />
        <mxCell id="hlOOXutPRbTM6eH1-8SV-1" value="" style="endArrow=classic;html=1;rounded=0;exitX=1;exitY=0;exitDx=0;exitDy=0;entryX=0;entryY=0.25;entryDx=0;entryDy=0;" edge="1" parent="1" source="hlOOXutPRbTM6eH1-8SV-14">
          <mxGeometry width="50" height="50" relative="1" as="geometry">
            <mxPoint x="249" y="283" as="sourcePoint" />
            <mxPoint x="589.0000000000002" y="128.37" as="targetPoint" />
          </mxGeometry>
        </mxCell>
        <mxCell id="hlOOXutPRbTM6eH1-8SV-3" style="edgeStyle=orthogonalEdgeStyle;rounded=0;orthogonalLoop=1;jettySize=auto;html=1;entryX=0.5;entryY=0;entryDx=0;entryDy=0;" edge="1" parent="1" source="hlOOXutPRbTM6eH1-8SV-20" target="hlOOXutPRbTM6eH1-8SV-24">
          <mxGeometry relative="1" as="geometry" />
        </mxCell>
        <mxCell id="hlOOXutPRbTM6eH1-8SV-7" value="" style="endArrow=classic;html=1;rounded=0;exitX=1;exitY=0.5;exitDx=0;exitDy=0;entryX=0;entryY=0.25;entryDx=0;entryDy=0;edgeStyle=orthogonalEdgeStyle;" edge="1" parent="1" source="hlOOXutPRbTM6eH1-8SV-11" target="hlOOXutPRbTM6eH1-8SV-23">
          <mxGeometry width="50" height="50" relative="1" as="geometry">
            <mxPoint x="-111" y="829" as="sourcePoint" />
            <mxPoint x="450" y="577.6800000000001" as="targetPoint" />
          </mxGeometry>
        </mxCell>
        <mxCell id="hlOOXutPRbTM6eH1-8SV-8" value="" style="group" vertex="1" connectable="0" parent="1">
          <mxGeometry x="60" y="480" width="250" height="271" as="geometry" />
        </mxCell>
        <mxCell id="hlOOXutPRbTM6eH1-8SV-9" value="" style="group" vertex="1" connectable="0" parent="hlOOXutPRbTM6eH1-8SV-8">
          <mxGeometry x="103" y="-144" width="250" height="250.1538461538462" as="geometry" />
        </mxCell>
        <mxCell id="hlOOXutPRbTM6eH1-8SV-10" value="InquiryVO" style="swimlane;fontStyle=0;childLayout=stackLayout;horizontal=1;startSize=30;horizontalStack=0;resizeParent=1;resizeParentMax=0;resizeLast=0;collapsible=1;marginBottom=0;whiteSpace=wrap;html=1;container=0;" vertex="1" parent="hlOOXutPRbTM6eH1-8SV-9">
          <mxGeometry x="10" y="-1.42" width="195.31" height="161.42" as="geometry">
            <mxRectangle x="100" y="80" width="140" height="30" as="alternateBounds" />
          </mxGeometry>
        </mxCell>
        <mxCell id="hlOOXutPRbTM6eH1-8SV-11" value="&lt;div&gt;&amp;nbsp; - Long inquiryId&lt;/div&gt;&lt;div&gt;&amp;nbsp; - Long userId&lt;/div&gt;&lt;div&gt;&amp;nbsp; - String username&lt;/div&gt;&lt;div&gt;&amp;nbsp; - String category&lt;/div&gt;&lt;div&gt;&amp;nbsp; - String content&lt;/div&gt;&lt;div&gt;&amp;nbsp; - String status&lt;/div&gt;&lt;div&gt;&amp;nbsp; - Date createdAt&lt;/div&gt;&lt;div&gt;&amp;nbsp; - Date updatedAt&lt;/div&gt;" style="text;strokeColor=none;fillColor=none;align=left;verticalAlign=middle;spacingLeft=4;spacingRight=4;overflow=hidden;points=[[0,0.5],[1,0.5]];portConstraint=eastwest;rotatable=0;whiteSpace=wrap;html=1;container=0;" vertex="1" parent="hlOOXutPRbTM6eH1-8SV-9">
          <mxGeometry x="10" y="29.85" width="195.31" height="130.15" as="geometry" />
        </mxCell>
        <mxCell id="hlOOXutPRbTM6eH1-8SV-12" value="" style="rounded=0;whiteSpace=wrap;html=1;align=left;container=0;" vertex="1" parent="hlOOXutPRbTM6eH1-8SV-9">
          <mxGeometry x="10" y="159.9963076923077" width="195.31" height="20.846153846153847" as="geometry" />
        </mxCell>
        <mxCell id="hlOOXutPRbTM6eH1-8SV-13" value="" style="group" vertex="1" connectable="0" parent="1">
          <mxGeometry x="90" y="40" width="360" height="170" as="geometry" />
        </mxCell>
        <mxCell id="hlOOXutPRbTM6eH1-8SV-14" value="&lt;div&gt;&amp;nbsp; + submitInquiry(inquiry: InquiryVO): ResponseEntity&amp;lt;String&amp;gt;&lt;/div&gt;&lt;div&gt;&amp;nbsp; + getAll(): ResponseEntity&amp;lt;List&amp;lt;InquiryVO&amp;gt;&amp;gt;&lt;/div&gt;&lt;div&gt;&amp;nbsp; + getInquiry(id: Long): ResponseEntity&amp;lt;InquiryVO&amp;gt;&lt;/div&gt;" style="rounded=0;whiteSpace=wrap;html=1;align=left;container=0;" vertex="1" parent="hlOOXutPRbTM6eH1-8SV-13">
          <mxGeometry y="88.06" width="360" height="81.94" as="geometry" />
        </mxCell>
        <mxCell id="hlOOXutPRbTM6eH1-8SV-15" value="InquiryController&amp;nbsp;" style="swimlane;fontStyle=0;childLayout=stackLayout;horizontal=1;startSize=30;horizontalStack=0;resizeParent=1;resizeParentMax=0;resizeLast=0;collapsible=1;marginBottom=0;whiteSpace=wrap;html=1;container=0;" vertex="1" parent="hlOOXutPRbTM6eH1-8SV-13">
          <mxGeometry width="360" height="88.06" as="geometry">
            <mxRectangle x="100" y="80" width="140" height="30" as="alternateBounds" />
          </mxGeometry>
        </mxCell>
        <mxCell id="hlOOXutPRbTM6eH1-8SV-16" value="&amp;nbsp; - inquiryService: InquiryService" style="text;strokeColor=none;fillColor=none;align=left;verticalAlign=middle;spacingLeft=4;spacingRight=4;overflow=hidden;points=[[0,0.5],[1,0.5]];portConstraint=eastwest;rotatable=0;whiteSpace=wrap;html=1;container=0;" vertex="1" parent="hlOOXutPRbTM6eH1-8SV-13">
          <mxGeometry y="30" width="360" height="58.06" as="geometry" />
        </mxCell>
        <mxCell id="hlOOXutPRbTM6eH1-8SV-17" style="rounded=0;orthogonalLoop=1;jettySize=auto;html=1;edgeStyle=orthogonalEdgeStyle;" edge="1" parent="1" source="hlOOXutPRbTM6eH1-8SV-14" target="hlOOXutPRbTM6eH1-8SV-10">
          <mxGeometry relative="1" as="geometry" />
        </mxCell>
        <mxCell id="hlOOXutPRbTM6eH1-8SV-18" value="" style="group" vertex="1" connectable="0" parent="1">
          <mxGeometry x="590" y="40" width="290" height="160" as="geometry" />
        </mxCell>
        <mxCell id="hlOOXutPRbTM6eH1-8SV-19" value="InquiryService" style="swimlane;fontStyle=0;childLayout=stackLayout;horizontal=1;startSize=30;horizontalStack=0;resizeParent=1;resizeParentMax=0;resizeLast=0;collapsible=1;marginBottom=0;whiteSpace=wrap;html=1;container=0;" vertex="1" parent="hlOOXutPRbTM6eH1-8SV-18">
          <mxGeometry width="289.99999999999994" height="88.06451612903226" as="geometry">
            <mxRectangle x="100" y="80" width="140" height="30" as="alternateBounds" />
          </mxGeometry>
        </mxCell>
        <mxCell id="hlOOXutPRbTM6eH1-8SV-20" value="&lt;div&gt;&amp;nbsp; + saveInquiry(inquiry: InquiryVO): void&lt;/div&gt;&lt;div&gt;&amp;nbsp; + getAllInquiries(): List&amp;lt;InquiryVO&amp;gt;&lt;/div&gt;&lt;div&gt;&amp;nbsp; + getInquiry(inquiryId: Long): InquiryVO&lt;/div&gt;&lt;div&gt;&amp;nbsp; + updateStatus(inquiryId: Long, status: String): void&lt;/div&gt;" style="rounded=0;whiteSpace=wrap;html=1;align=left;container=0;" vertex="1" parent="hlOOXutPRbTM6eH1-8SV-18">
          <mxGeometry y="83.87" width="289.99999999999994" height="76.13" as="geometry" />
        </mxCell>
        <mxCell id="hlOOXutPRbTM6eH1-8SV-21" value="&amp;nbsp; - inquiryMapper: InquiryMapper" style="text;strokeColor=none;fillColor=none;align=left;verticalAlign=middle;spacingLeft=4;spacingRight=4;overflow=hidden;points=[[0,0.5],[1,0.5]];portConstraint=eastwest;rotatable=0;whiteSpace=wrap;html=1;container=0;" vertex="1" parent="hlOOXutPRbTM6eH1-8SV-18">
          <mxGeometry y="30" width="289.99999999999994" height="58.06451612903226" as="geometry" />
        </mxCell>
        <mxCell id="hlOOXutPRbTM6eH1-8SV-22" value="" style="group" vertex="1" connectable="0" parent="1">
          <mxGeometry x="559.5" y="353" width="351" height="150" as="geometry" />
        </mxCell>
        <mxCell id="hlOOXutPRbTM6eH1-8SV-23" value="&lt;div&gt;&amp;nbsp; + insertInquiry(inquiry: InquiryVO): void&lt;/div&gt;&lt;div&gt;&amp;nbsp; + findAllInquiries(): List&amp;lt;InquiryVO&amp;gt;&lt;/div&gt;&lt;div&gt;&amp;nbsp; + findInquiryById(inquiryId: Long): InquiryVO&lt;/div&gt;&lt;div&gt;&amp;nbsp; + updateInquiryStatus(inquiryId: Long, status: String): void&lt;/div&gt;" style="rounded=0;whiteSpace=wrap;html=1;align=left;container=0;" vertex="1" parent="hlOOXutPRbTM6eH1-8SV-22">
          <mxGeometry y="60" width="351" height="70" as="geometry" />
        </mxCell>
        <mxCell id="hlOOXutPRbTM6eH1-8SV-24" value="&lt;div&gt;&amp;lt;&amp;lt;interface&amp;gt;&amp;gt;&lt;/div&gt;InquiryMapper&amp;nbsp;" style="swimlane;fontStyle=0;childLayout=stackLayout;horizontal=1;startSize=30;horizontalStack=0;resizeParent=1;resizeParentMax=0;resizeLast=0;collapsible=1;marginBottom=0;whiteSpace=wrap;html=1;container=0;" vertex="1" parent="hlOOXutPRbTM6eH1-8SV-22">
          <mxGeometry width="351" height="60" as="geometry">
            <mxRectangle x="100" y="80" width="140" height="30" as="alternateBounds" />
          </mxGeometry>
        </mxCell>
      </root>
    </mxGraphModel>
  </diagram>
</mxfile>
